# xmcd
#
# Track frame offsets: 
#        150
#        15960
#        30126
#        45198
#        61836
#        79982
#        96974
#        115249
#        130751
#        150348
#
# Disc length: 2206 seconds
#
# Revision: 0
# Processed by: cddbd v1.5.2PL0 Copyright (c) Steve Scherf et al.
# Submitted via: ExactAudioCopy v0.99pb5
#
DISCID=61089c0a
DTITLE=David Magdalene - Modern Fiction
DYEAR=2002
DGENRE=Folk/Rock
TTITLE0=Close My Eyes
TTITLE1=Can't Do A Thing About It
TTITLE2=L.A.
TTITLE3=That's How It Goes
TTITLE4=Country Girl
TTITLE5=Come For Me
TTITLE6=Boys In The Band
TTITLE7=Nightride
TTITLE8=Done
TTITLE9=No Good
EXTD=
EXTT0=
EXTT1=
EXTT2=
EXTT3=
EXTT4=
EXTT5=
EXTT6=
EXTT7=
EXTT8=
EXTT9=
PLAYORDER=
